<mxfile host="app.diagrams.net" modified="2024-05-25T11:16:05.730Z" agent="Mozilla/5.0 (Macintosh; Intel Mac OS X 10_15_7) AppleWebKit/605.1.15 (KHTML, like Gecko) Version/17.4.1 Safari/605.1.15" version="24.4.8" etag="qwGQ_c-Pziq3k4TaqbpI" type="github">
  <diagram name="第 1 页" id="XmSGtPGqXR_ckF9pFA58">
    <mxGraphModel>
      <root>
        <mxCell id="0" />
        <mxCell id="1" parent="0" />
      </root>
    </mxGraphModel>
  </diagram>
</mxfile>
